<svg version="1.1" viewBox="0.0 0.0 402.2178477690289 394.68503937007875" fill="none" stroke="none" stroke-linecap="square" stroke-miterlimit="10" xmlns:xlink="http://www.w3.org/1999/xlink" xmlns="http://www.w3.org/2000/svg"><clipPath id="p.0"><path d="m0 0l402.21783 0l0 394.68503l-402.21783 0l0 -394.68503z" clip-rule="nonzero"/></clipPath><g clip-path="url(#p.0)"><path fill="#000000" fill-opacity="0.0" d="m0 0l402.21783 0l0 394.68503l-402.21783 0z" fill-rule="evenodd"/><path fill="#4a86e8" d="m12.666667 166.05597l187.5433 -152.41554l187.54332 152.41554l-65.34012 0l0 213.91516l-244.40643 0l0 -213.91516z" fill-rule="evenodd"/><path stroke="#4a86e8" stroke-width="24.0" stroke-linejoin="round" stroke-linecap="butt" d="m12.666667 166.05597l187.5433 -152.41554l187.54332 152.41554l-65.34012 0l0 213.91516l-244.40643 0l0 -213.91516z" fill-rule="evenodd"/><path fill="#ffffff" d="m55.139107 153.93839l145.07086 -113.990875l145.07088 113.990875l-50.542694 0l0 206.54456l-189.05637 0l0 -206.54456z" fill-rule="evenodd"/><path stroke="#ffffff" stroke-width="16.0" stroke-linejoin="round" stroke-linecap="butt" d="m55.139107 153.93839l145.07086 -113.990875l145.07088 113.990875l-50.542694 0l0 206.54456l-189.05637 0l0 -206.54456z" fill-rule="evenodd"/><path fill="#ffffff" d="m81.18806 143.86722l0 0c18.795296 0 34.149582 14.3142395 34.573868 32.231964l-18.14672 0.39071655l0 0c-0.2128601 -8.047821 -7.5048294 -14.471817 -16.427147 -14.471817z" fill-rule="evenodd"/><path stroke="#ffffff" stroke-width="1.0" stroke-linejoin="round" stroke-linecap="butt" d="m81.18806 143.86722l0 0c18.795296 0 34.149582 14.3142395 34.573868 32.231964l-18.14672 0.39071655l0 0c-0.2128601 -8.047821 -7.5048294 -14.471817 -16.427147 -14.471817z" fill-rule="evenodd"/><path fill="#ffffff" d="m284.65 178.17955l0 0c0 -18.795288 14.3142395 -34.149567 32.231964 -34.573868l0.39071655 18.146729l0 0c-8.047821 0.2128601 -14.471802 7.504837 -14.471802 16.42714z" fill-rule="evenodd"/><path stroke="#ffffff" stroke-width="1.0" stroke-linejoin="round" stroke-linecap="butt" d="m284.65 178.17955l0 0c0 -18.795288 14.3142395 -34.149567 32.231964 -34.573868l0.39071655 18.146729l0 0c-8.047821 0.2128601 -14.471802 7.504837 -14.471802 16.42714z" fill-rule="evenodd"/><path fill="#4a86e8" d="m113.9479 387.0457l0 0c-18.795296 0 -34.149574 -14.3142395 -34.57386 -32.231964l18.14672 -0.39071655l0 0c0.2128601 8.047821 7.5048294 14.471832 16.42714 14.471832z" fill-rule="evenodd"/><path stroke="#6aa84f" stroke-width="1.0" stroke-linejoin="round" stroke-linecap="butt" d="m113.9479 387.0457l0 0c-18.795296 0 -34.149574 -14.3142395 -34.57386 -32.231964l18.14672 -0.39071655l0 0c0.2128601 8.047821 7.5048294 14.471832 16.42714 14.471832z" fill-rule="evenodd"/><path fill="#999999" d="m71.11134 312.94928l0 0c11.817673 -28.529968 44.52292 -42.083466 73.04921 -30.272583l0 0c13.698822 5.6717834 24.582153 16.553802 30.255814 30.252136c5.6736603 13.698334 5.672867 29.090881 -0.0021820068 42.791473l0 0c-11.817673 28.529968 -44.52292 42.083496 -73.04922 30.272614l0 0c-28.52629 -11.810913 -42.071304 -44.51364 -30.253624 -73.04364zm17.26397 7.1479187l0 0c-7.8685074 18.995972 1.1485977 40.769653 20.140266 48.632874c18.991661 7.8631897 40.76613 -1.1616821 48.634644 -20.157654c7.8684998 -18.996002 -1.1486053 -40.769653 -20.140274 -48.632874l0 0c-18.991661 -7.86322 -40.76613 1.1616516 -48.634636 20.157654z" fill-rule="evenodd"/><path fill="#999999" d="m120.60442 292.1464l23.438316 -32.884796l16.759354 6.938965l-6.6789703 39.82376z" fill-rule="evenodd"/><path fill="#999999" d="m164.59908 332.14047l32.529037 23.372986l-7.004303 16.909637l-39.533325 -6.4633484z" fill-rule="evenodd"/><path fill="#999999" d="m91.52939 306.11078l-6.428917 -39.783997l16.804657 -7.0508423l23.233582 32.733154z" fill-rule="evenodd"/><path fill="#999999" d="m150.93918 302.90134l39.57863 -6.7266846l6.898361 16.864716l-32.680267 23.59143z" fill-rule="evenodd"/><path fill="#999999" d="m149.66685 241.52159l0 0c-11.773575 -28.563065 1.3113098 -61.15738 29.225937 -72.80144l0 0c13.405075 -5.59169 28.507095 -5.505493 41.98381 0.2395935c13.476715 5.7450867 24.224152 16.678482 29.878036 30.394943l0 0c11.77356 28.563065 -1.3113251 61.157364 -29.225937 72.80144l0 0c-27.914627 11.6440735 -60.088272 -2.0714722 -71.86185 -30.634537zm16.893784 -7.046936l0 0c7.9210052 19.216568 29.407898 28.5103 47.992325 20.758163c18.584442 -7.7521515 27.228867 -29.614624 19.307877 -48.831192l0 0c-7.92099 -19.216568 -29.407883 -28.510315 -47.992325 -20.758163l0 0c-18.584442 7.7521515 -27.228867 29.614624 -19.307877 48.831192z" fill-rule="evenodd"/><path fill="#999999" d="m169.26424 191.98878l-6.8024597 -39.81688l16.399979 -6.8409576l23.202454 32.975937z" fill-rule="evenodd"/><path fill="#999999" d="m231.15726 248.8875l6.8024597 39.81688l-16.399979 6.8409424l-23.202454 -32.97592z" fill-rule="evenodd"/><path fill="#999999" d="m173.10495 251.87894l-38.747665 6.242859l-6.978157 -16.92923l31.769508 -23.172073z" fill-rule="evenodd"/><path fill="#999999" d="m227.52275 189.4995l38.747665 -6.242859l6.9781494 16.92923l-31.7695 23.172073z" fill-rule="evenodd"/><path fill="#999999" d="m158.9691 222.32556l-32.21199 -23.742523l6.6627197 -16.80928l38.87471 6.933243z" fill-rule="evenodd"/><path fill="#999999" d="m241.2064 218.44714l32.21199 23.742508l-6.6627197 16.80928l-38.87471 -6.933243z" fill-rule="evenodd"/><path fill="#999999" d="m202.97693 262.66016l-22.590652 32.572357l-16.532043 -7.1340027l6.0585938 -39.70639z" fill-rule="evenodd"/><path fill="#999999" d="m197.68839 178.3247l22.590652 -32.572372l16.532043 7.134018l-6.0585938 39.706375z" fill-rule="evenodd"/><path fill="#999999" d="m145.43803 81.51724l0 0c0 -30.88911 24.522552 -56.028854 54.77266 -56.15119l0 0c14.526611 -0.058746338 28.458252 5.777487 38.730118 16.224798c10.271866 10.447308 16.042542 24.649902 16.042542 39.483383l0 0c0 30.889107 -24.522552 56.028854 -54.77266 56.151184l0 0c-30.250107 0.12234497 -54.77266 -24.819061 -54.77266 -55.708176zm18.30722 -0.074035645l0 0c0 20.778236 16.326126 37.556297 36.46544 37.474854c20.139313 -0.08144379 36.465454 -16.991562 36.465454 -37.76979c0 -20.778236 -16.326141 -37.556297 -36.465454 -37.474854l0 0c-20.139313 0.0814476 -36.46544 16.991558 -36.46544 37.76979z" fill-rule="evenodd"/><path fill="#999999" d="m217.98279 119.38806l-8.886047 39.396317l-17.772095 0.0718689l-8.886047 -39.32444z" fill-rule="evenodd"/><path fill="#999999" d="m163.16301 100.02481l-38.208504 -8.99942l0 -18.307869l38.208504 -9.308456z" fill-rule="evenodd"/><path fill="#999999" d="m237.25766 63.10942l38.208496 8.999413l0 18.307869l-38.208496 9.308456z" fill-rule="evenodd"/><path fill="#999999" d="m238.87729 95.0821l20.736267 34.224083l-12.567703 12.997391l-33.303925 -21.2267z" fill-rule="evenodd"/><path fill="#999999" d="m186.67569 121.376595l-33.30394 21.49607l-12.567688 -12.895737l20.736252 -34.391808z" fill-rule="evenodd"/><path fill="#000000" fill-opacity="0.0" d="m320.33334 183.61942l-66.22836 0l-74.76903 50.737534" fill-rule="evenodd"/><path stroke="#4a86e8" stroke-width="12.0" stroke-linejoin="round" stroke-linecap="butt" d="m320.33334 183.61942l-66.22836 0l-37.135757 25.199982" fill-rule="evenodd"/><path stroke="#4a86e8" stroke-width="12.0" stroke-linecap="butt" d="m184.30077 230.98788c-6.1216583 -9.021149 -3.771164 -21.296814 5.2499847 -27.418472c9.021149 -6.1216736 21.296814 -3.771164 27.418472 5.2499695c6.1216583 9.021149 3.771164 21.296814 -5.2499847 27.418488c-9.021133 6.1216583 -21.296814 3.771164 -27.418472 -5.2499847z" fill-rule="nonzero"/><path fill="#000000" fill-opacity="0.0" d="m230.07349 383.36484l-22.43306 -49.13388l-111.086624 1.0682678" fill-rule="evenodd"/><path stroke="#4a86e8" stroke-width="12.0" stroke-linejoin="round" stroke-linecap="butt" d="m230.07349 383.36484l-22.43306 -49.13388l-65.60872 0.6309204" fill-rule="evenodd"/><path stroke="#4a86e8" stroke-width="12.0" stroke-linecap="butt" d="m102.55353 335.24152c-0.10483551 -10.901581 8.647675 -19.824066 19.54927 -19.928894c10.901596 -0.10482788 19.824066 8.647675 19.92891 19.549255c0.10482788 10.901611 -8.647675 19.824066 -19.549278 19.928925c-10.901596 0.10482788 -19.824066 -8.647675 -19.928902 -19.549286z" fill-rule="nonzero"/><path fill="#000000" fill-opacity="0.0" d="m88.54068 102.973755l67.82939 20.29396l62.485565 -60.884514" fill-rule="evenodd"/><path stroke="#4a86e8" stroke-width="12.0" stroke-linejoin="round" stroke-linecap="butt" d="m88.54068 102.973755l67.82939 20.29396l29.911758 -29.145317" fill-rule="evenodd"/><path stroke="#4a86e8" stroke-width="12.0" stroke-linecap="butt" d="m214.5583 66.570435c7.608261 7.8083344 7.4460754 20.305954 -0.3622589 27.914223c-7.8083344 7.608261 -20.305954 7.4460754 -27.91423 -0.36226654c-7.608261 -7.8083344 -7.4460754 -20.305954 0.3622589 -27.914223c7.8083496 -7.608261 20.30597 -7.4460716 27.91423 0.36226654z" fill-rule="nonzero"/><path fill="#4a86e8" d="m66.40157 257.19946l31.30709 0l0 118.55121l-31.30709 0z" fill-rule="evenodd"/><path stroke="#4a86e8" stroke-width="1.0" stroke-linejoin="round" stroke-linecap="butt" d="m66.40157 257.19946l31.30709 0l0 118.55121l-31.30709 0z" fill-rule="evenodd"/><path fill="#4a86e8" d="m197.91602 368.8084l0 22.771637l-118.551186 0l0 -22.771637z" fill-rule="evenodd"/><path stroke="#4a86e8" stroke-width="1.0" stroke-linejoin="round" stroke-linecap="butt" d="m197.91602 368.8084l0 22.771637l-118.551186 0l0 -22.771637z" fill-rule="evenodd"/><path fill="#4a86e8" d="m321.27863 352.463l0 0c0 18.795288 -14.31427 34.149597 -32.231995 34.573883l-0.39071655 -18.146729l0 0c8.047821 -0.2128601 14.471832 -7.504822 14.471832 -16.427155z" fill-rule="evenodd"/><path stroke="#4a86e8" stroke-width="1.0" stroke-linejoin="round" stroke-linecap="butt" d="m321.27863 352.463l0 0c0 18.795288 -14.31427 34.149597 -32.231995 34.573883l-0.39071655 -18.146729l0 0c8.047821 -0.2128601 14.471832 -7.504822 14.471832 -16.427155z" fill-rule="evenodd"/><path fill="#4a86e8" d="m175.49843 26.321474l0 0c6.557312 -6.557312 15.351105 -10.328814 24.407455 -10.467923c9.056351 -0.13910961 17.616592 3.3658266 23.759201 9.728061l-12.705261 12.305798c-2.8445892 -2.9577026 -6.8783264 -4.524044 -11.194824 -4.347061c-4.316498 0.1769867 -8.553696 2.0824547 -11.759476 5.288227z" fill-rule="evenodd"/><path stroke="#4a86e8" stroke-width="1.0" stroke-linejoin="round" stroke-linecap="butt" d="m175.49843 26.321474l0 0c6.557312 -6.557312 15.351105 -10.328814 24.407455 -10.467923c9.056351 -0.13910961 17.616592 3.3658266 23.759201 9.728061l-12.705261 12.305798c-2.8445892 -2.9577026 -6.8783264 -4.524044 -11.194824 -4.347061c-4.316498 0.1769867 -8.553696 2.0824547 -11.759476 5.288227z" fill-rule="evenodd"/><path fill="#4a86e8" d="m176.78737 20.771658l13.196854 16.850393l-66.89764 52.346455l-13.196854 -16.850388z" fill-rule="evenodd"/><path stroke="#4a86e8" stroke-width="1.0" stroke-linejoin="round" stroke-linecap="butt" d="m176.78737 20.771658l13.196854 16.850393l-66.89764 52.346455l-13.196854 -16.850388z" fill-rule="evenodd"/><path fill="#4a86e8" d="m219.90033 17.850376l-13.196854 16.850391l70.866135 55.496063l13.196869 -16.850395z" fill-rule="evenodd"/><path stroke="#4a86e8" stroke-width="1.0" stroke-linejoin="round" stroke-linecap="butt" d="m219.90033 17.850376l-13.196854 16.850391l70.866135 55.496063l13.196869 -16.850395z" fill-rule="evenodd"/><path fill="#4a86e8" d="m326.46982 187.50131l0 0c0 -4.6615753 1.9227905 -9.128265 5.3374634 -12.399048c3.4146729 -3.2707825 8.035675 -5.072174 12.827484 -5.000473l-0.12033081 7.6080627l0 0c-2.7531433 -0.039505005 -5.407898 0.9745941 -7.3694763 2.8151093c-1.9616089 1.8405304 -3.0661316 4.3536377 -3.0661316 6.976349z" fill-rule="evenodd"/><path stroke="#4a86e8" stroke-width="1.0" stroke-linejoin="round" stroke-linecap="butt" d="m326.46982 187.50131l0 0c0 -4.6615753 1.9227905 -9.128265 5.3374634 -12.399048c3.4146729 -3.2707825 8.035675 -5.072174 12.827484 -5.000473l-0.12033081 7.6080627l0 0c-2.7531433 -0.039505005 -5.407898 0.9745941 -7.3694763 2.8151093c-1.9616089 1.8405304 -3.0661316 4.3536377 -3.0661316 6.976349z" fill-rule="evenodd"/><path fill="#4a86e8" d="m56.548557 170.09842l0 0c4.661579 0 9.128262 1.9227905 12.399044 5.3374634c3.2707825 3.4146729 5.072174 8.03569 5.000473 12.827484l-7.6080704 -0.12033081l0 0c0.039505005 -2.7531433 -0.9745865 -5.4078827 -2.8151054 -7.3694763c-1.840519 -1.9616089 -4.3536263 -3.0661163 -6.9763412 -3.0661163z" fill-rule="evenodd"/><path stroke="#4a86e8" stroke-width="1.0" stroke-linejoin="round" stroke-linecap="butt" d="m56.548557 170.09842l0 0c4.661579 0 9.128262 1.9227905 12.399044 5.3374634c3.2707825 3.4146729 5.072174 8.03569 5.000473 12.827484l-7.6080704 -0.12033081l0 0c0.039505005 -2.7531433 -0.9745865 -5.4078827 -2.8151054 -7.3694763c-1.840519 -1.9616089 -4.3536263 -3.0661163 -6.9763412 -3.0661163z" fill-rule="evenodd"/><path fill="#4a86e8" d="m113.9479 387.0457l0 0c-18.795296 0 -34.149574 -14.3142395 -34.57386 -32.231964l18.14672 -0.39071655l0 0c0.2128601 8.047821 7.5048294 14.471832 16.42714 14.471832z" fill-rule="evenodd"/><path stroke="#4a86e8" stroke-width="1.0" stroke-linejoin="round" stroke-linecap="butt" d="m113.9479 387.0457l0 0c-18.795296 0 -34.149574 -14.3142395 -34.57386 -32.231964l18.14672 -0.39071655l0 0c0.2128601 8.047821 7.5048294 14.471832 16.42714 14.471832z" fill-rule="evenodd"/></g></svg>